<?xml version="1.0" encoding="UTF-8" standalone="no"?>
<!-- Created with Inkscape (http://www.inkscape.org/) -->

<svg
   xmlns:dc="http://purl.org/dc/elements/1.1/"
   xmlns:cc="http://creativecommons.org/ns#"
   xmlns:rdf="http://www.w3.org/1999/02/22-rdf-syntax-ns#"
   xmlns:svg="http://www.w3.org/2000/svg"
   xmlns="http://www.w3.org/2000/svg"
   xmlns:sodipodi="http://sodipodi.sourceforge.net/DTD/sodipodi-0.dtd"
   xmlns:inkscape="http://www.inkscape.org/namespaces/inkscape"
   width="1366px"
   height="768px"
   viewBox="0 0 1366 768"
   version="1.1"
   id="SVGRoot"
   inkscape:version="0.92.4 (5da689c313, 2019-01-14)"
   sodipodi:docname="genkwh-rightsgranter.svg">
  <defs
     id="defs10" />
  <sodipodi:namedview
     id="base"
     pagecolor="#ffffff"
     bordercolor="#666666"
     borderopacity="1.0"
     inkscape:pageopacity="0.0"
     inkscape:pageshadow="2"
     inkscape:zoom="0.35"
     inkscape:cx="581.00695"
     inkscape:cy="119.98343"
     inkscape:document-units="px"
     inkscape:current-layer="layer1"
     showgrid="false"
     inkscape:window-width="1360"
     inkscape:window-height="709"
     inkscape:window-x="0"
     inkscape:window-y="0"
     inkscape:window-maximized="1"
     inkscape:snap-intersection-paths="true" />
  <metadata
     id="metadata13">
    <rdf:RDF>
      <cc:Work
         rdf:about="">
        <dc:format>image/svg+xml</dc:format>
        <dc:type
           rdf:resource="http://purl.org/dc/dcmitype/StillImage" />
        <dc:title />
      </cc:Work>
    </rdf:RDF>
  </metadata>
  <g
     inkscape:label="Capa 1"
     inkscape:groupmode="layer"
     id="layer1">
    <path
       style="fill:#0000ff;fill-opacity:0.16358026;stroke:none;stroke-width:7.55905533;stroke-linecap:butt;stroke-linejoin:miter;stroke-miterlimit:4;stroke-dasharray:none;stroke-opacity:1"
       d="m 1336,47.566533 h -100 v 46.56888 h -100 v 90.596337 h -100 v 99.21864 H 936 v 39.98318 H 836 V 352.4978 H 736 v 22.47603 H 636 v 16.87473 H 536 l 2e-5,21.5715 H 436 v 37.10735 H 336 l -2e-5,54.83617 H 236 v 82.69683 H 136 V 690.18262 H 36 V 736 l 1300,-0.57143 z"
       id="path837"
       inkscape:connector-curvature="0"
       sodipodi:nodetypes="ccccccccccccccccccccccccccccc" />
    <path
       d="M 36,36 H 1336 M 36,136 H 1336 M 36,236 H 1336 M 36,336 H 1336 M 36,436 H 1336 M 36,536 H 1336 M 36,636 H 1336 M 36,736 1336,735.42857"
       style="fill:#338000;stroke:#44aa00;stroke-width:1px"
       id="path25"
       inkscape:connector-curvature="0"
       sodipodi:nodetypes="cccccccccccccccc" />
    <path
       d="M 36,36 H 1336 M 36,211 H 1336 M 36,386 H 1336 M 36,561 H 1336 M 36,736 1336,735.42857"
       style="fill:#ff0000;stroke:#ff0000;stroke-width:1px"
       id="path36"
       inkscape:connector-curvature="0"
       sodipodi:nodetypes="cccccccccc" />
    <path
       d="M 36,36 V 735.42857 M 136,36 V 735.42857 M 236,36 V 735.42857 M 336,36 V 735.42857 M 436,36 V 735.42857 M 536,36 V 735.42857 M 636,36 V 735.42857 M 736,36 V 735.42857 M 836,36 V 735.42857 M 936,36 V 735.42857 M 1036,36 V 735.42857 M 1136,36 V 735.42857 M 1236,36 V 735.42857 M 1336,36 V 735.42857 M 36,36 h 1300"
       style="fill:none;stroke:#000000;stroke-width:1px"
       id="path38"
       inkscape:connector-curvature="0"
       sodipodi:nodetypes="cccccccccccccccccccccccccccccc" />
    <path
       style="fill:none;stroke:#0000ff;stroke-width:5;stroke-linecap:butt;stroke-linejoin:miter;stroke-miterlimit:4;stroke-dasharray:none;stroke-opacity:1"
       d="M 36,735.42857 C 150.92595,742.17872 199.61679,557.1663 427.43712,454.35038 628.98519,363.39121 657.77878,418.13383 996.89543,304.21555 1101.3158,269.13797 1157.7874,99.335562 1331.6138,48.809119"
       id="path40"
       inkscape:connector-curvature="0"
       sodipodi:nodetypes="cssc" />
    <path
       style="fill:none;stroke:#ff0000;stroke-width:5;stroke-linecap:butt;stroke-linejoin:miter;stroke-miterlimit:4;stroke-dasharray:none;stroke-opacity:1"
       d="M 36,735.42857 H 236 V 561 H 636 V 386 h 400 V 211 l 300.0663,-1.97985"
       id="path933"
       inkscape:connector-curvature="0"
       sodipodi:nodetypes="cccccccc" />
    <path
       style="fill:none;stroke:#00aa00;stroke-width:5;stroke-linecap:butt;stroke-linejoin:miter;stroke-miterlimit:4;stroke-dasharray:none;stroke-opacity:1"
       d="m 36,736 100,-0.57143 V 636 H 236 V 536 H 436 V 436 H 836 V 336 h 200 V 236 h 100 V 136 h 200"
       id="path935"
       inkscape:connector-curvature="0"
       sodipodi:nodetypes="cccccccccccccc" />
  </g>
</svg>
